<?xml version="1.0" encoding="UTF-8" standalone="no"?>
<svg width="135px" height="135px" viewBox="0 0 135 135" version="1.1" xmlns="http://www.w3.org/2000/svg" xmlns:xlink="http://www.w3.org/1999/xlink" xmlns:sketch="http://www.bohemiancoding.com/sketch/ns">
    <!-- Generator: Sketch 3.2.2 (9983) - http://www.bohemiancoding.com/sketch -->
    <title>Shape</title>
    <desc>Created with Sketch.</desc>
    <defs></defs>
    <g id="Page-1" stroke="none" stroke-width="1" fill="none" fill-rule="evenodd" sketch:type="MSPage">
        <g id="Poderes" sketch:type="MSArtboardGroup" transform="translate(-1180.000000, -2188.000000)" fill="#FFFFFF">
            <g id="SOCIAL" sketch:type="MSLayerGroup" transform="translate(0.000000, 2101.000000)">
                <g id="Group-5" transform="translate(-57.000000, -248.500000)" sketch:type="MSShapeGroup">
                    <path d="M1301.14916,377.652914 C1298.53341,380.201594 1296.46409,383.424925 1294.93724,387.320934 C1293.4104,391.218916 1292.64501,395.560746 1292.64501,400.344454 C1292.64501,404.24638 1293.13029,408.173952 1294.10675,412.139004 C1295.08125,416.104056 1296.46409,419.826471 1298.25921,423.304275 C1300.05433,426.78208 1302.12366,429.87127 1304.47112,432.569872 C1306.81859,435.27242 1309.47774,437.410787 1312.44463,438.982999 C1315.41151,440.555211 1318.44547,441.342303 1321.54649,441.342303 C1325.40108,441.342303 1329.13138,440.123198 1332.74333,437.684987 C1336.3533,435.250721 1339.43263,432.092488 1341.98131,428.216206 C1344.52604,424.341896 1346.57564,419.944831 1348.12812,415.026982 C1349.67864,410.111107 1350.45389,405.212985 1350.45389,400.342481 C1350.45389,395.558774 1349.6885,391.216943 1348.15969,387.318961 C1346.63284,383.42098 1344.55958,380.199622 1341.9458,377.650941 C1339.33202,375.106206 1336.27637,373.157216 1332.77883,371.803969 C1329.27933,370.454668 1325.53522,369.778044 1321.54847,369.778044 C1317.56171,369.778044 1313.81957,370.45664 1310.32007,371.803969 C1306.81859,373.157216 1303.76294,375.108179 1301.14916,377.652914 Z M1369.28888,452.801501 C1367.71666,450.077254 1365.75584,448.075001 1363.40837,446.786853 C1362.87575,446.522516 1362.1143,446.157573 1361.11416,445.692025 C1360.11797,445.226476 1358.06048,444.394013 1354.93578,443.198579 C1351.81306,442.003146 1348.63312,440.96158 1345.4019,440.075854 C1342.21408,443.709499 1338.58044,446.498844 1334.50491,448.447835 C1330.42939,450.396826 1326.11123,451.371321 1321.54847,451.371321 C1318.53621,451.371321 1315.57919,450.895909 1312.67937,449.94114 C1309.77561,448.990317 1307.08687,447.680469 1304.60527,446.02146 C1302.12366,444.36245 1299.82156,442.377951 1297.69503,440.073881 C1294.45986,440.959607 1291.34897,441.955802 1288.36039,443.064438 C1285.36983,444.173075 1283.16637,445.080499 1281.74802,445.788685 L1279.68856,446.78488 C1278.18342,447.62918 1276.78678,448.824613 1275.50257,450.375126 C1274.21837,451.923666 1273.1985,453.639883 1272.44494,455.519831 C1271.69139,457.403724 1271.31658,459.232382 1271.31658,461.00186 C1271.31658,462.244638 1271.56119,463.428236 1272.04844,464.558571 C1272.53569,465.688907 1273.21034,466.673266 1274.07436,467.515593 C1274.93839,468.35792 1275.96812,469.022707 1277.16355,469.507982 C1278.35899,469.999175 1279.62149,470.23984 1280.95304,470.23984 L1361.74739,470.23984 C1364.44993,470.23984 1366.73033,469.320579 1368.59253,467.482058 C1370.45275,465.645509 1371.38384,463.351302 1371.38384,460.609301 C1371.55744,458.129663 1370.85912,455.523776 1369.28888,452.801501 Z M1263.77509,387.85158 C1265.25656,391.084775 1266.98461,394.041796 1268.95728,396.720672 C1270.92797,399.401521 1273.16497,401.672056 1275.66828,403.532277 C1278.16961,405.390525 1280.77155,406.6984 1283.4741,407.451957 C1283.16439,406.080957 1283.01053,403.841985 1283.01053,400.740959 L1283.01053,398.681499 C1281.36927,397.839172 1279.77733,396.655574 1278.22682,395.124788 C1276.67433,393.59992 1275.25796,391.804797 1273.97376,389.743364 C1272.68955,387.683904 1271.55922,385.456768 1270.58472,383.063928 C1269.61023,380.673061 1268.85864,378.114517 1268.32602,375.39027 C1267.79341,372.666023 1267.52907,369.951639 1267.52907,367.249091 C1267.52907,360.206685 1269.36562,354.683229 1273.04266,350.672806 C1276.71773,346.666327 1281.72435,344.660129 1288.05857,344.660129 C1293.50706,344.660129 1298.00276,346.220506 1301.54764,349.343231 C1305.09054,352.465956 1307.28217,356.774251 1308.1245,362.268117 C1311.49183,361.118055 1314.28118,360.540065 1316.49648,360.540065 C1315.56538,355.403251 1313.70516,350.97265 1310.91581,347.250236 C1308.1245,343.529794 1304.77886,340.772011 1300.88285,338.980833 C1296.9829,337.187683 1292.70814,336.292094 1288.05857,336.292094 C1284.86877,336.292094 1281.83482,336.712271 1278.95473,337.552626 C1276.07662,338.394953 1273.4293,339.669293 1271.01476,341.375646 C1268.60022,343.078054 1266.51907,345.139487 1264.76931,347.555998 C1263.01759,349.970538 1261.64462,352.826953 1260.64842,356.125245 C1259.65223,359.427483 1259.15512,363.001948 1259.15512,366.856531 C1259.15512,370.399433 1259.55359,373.977843 1260.35055,377.587816 C1261.14948,381.195816 1262.28968,384.618386 1263.77509,387.85158 Z M1282.80931,435.992442 C1283.4741,435.749805 1284.16256,435.505194 1284.86877,435.262557 C1285.57696,435.017947 1286.33052,434.763473 1287.12945,434.495191 C1287.9264,434.230854 1288.74506,433.976381 1289.58738,433.731771 C1290.42971,433.489133 1291.31544,433.232687 1292.24456,432.96835 C1291.98022,432.5679 1291.69024,432.092488 1291.38053,431.53817 C1291.07083,430.983851 1290.81635,430.50844 1290.61711,430.109962 C1290.41787,429.709511 1290.12,429.135466 1289.71955,428.381909 L1247.46117,428.381909 C1246.62082,428.381909 1246.19867,427.959759 1246.19867,427.117432 C1246.19867,426.008796 1246.64054,424.714729 1247.52627,423.229314 C1248.41199,421.747844 1249.36479,420.804912 1250.38268,420.406434 C1251.04747,420.096726 1251.98843,419.652877 1253.20754,419.076859 C1254.42467,418.500842 1256.92601,417.581581 1260.71549,416.319077 C1264.50103,415.056572 1268.32208,414.052487 1272.17666,413.29893 C1270.2257,412.190293 1267.56852,409.951321 1264.20316,406.587931 C1262.16343,407.163949 1260.14934,407.781392 1258.15695,408.446179 C1256.16456,409.110967 1254.47793,409.72052 1253.10693,410.274838 C1251.73199,410.827183 1250.50302,411.338103 1249.41805,411.801679 C1248.33309,412.267227 1247.5243,412.63217 1246.99365,412.898479 L1246.19669,413.29893 C1245.04466,413.916373 1243.95969,414.7587 1242.93983,415.819993 C1241.91996,416.885231 1241.03424,418.047129 1240.28265,419.311606 C1239.53107,420.57411 1238.9294,421.923411 1238.48753,423.363455 C1238.04565,424.803499 1237.82471,426.188308 1237.82471,427.517883 C1237.82471,429.200564 1238.24489,430.737269 1239.08722,432.133914 C1239.92954,433.530559 1241.09144,434.649059 1242.57686,435.489413 C1244.0603,436.33174 1245.68972,436.751917 1247.46117,436.751917 L1280.95107,436.751917 C1281.52511,436.491526 1282.1465,436.23508 1282.80931,435.992442 Z" id="Shape"></path>
                </g>
            </g>
        </g>
    </g>
</svg>