<?xml version="1.0" encoding="UTF-8" standalone="no"?>
<svg width="177px" height="182px" viewBox="0 0 177 182" version="1.1" xmlns="http://www.w3.org/2000/svg" xmlns:xlink="http://www.w3.org/1999/xlink" xmlns:sketch="http://www.bohemiancoding.com/sketch/ns">
    <!-- Generator: Sketch 3.2.2 (9983) - http://www.bohemiancoding.com/sketch -->
    <title>Group</title>
    <desc>Created with Sketch.</desc>
    <defs></defs>
    <g id="Page-1" stroke="none" stroke-width="1" fill="none" fill-rule="evenodd" sketch:type="MSPage">
        <g id="Poderes" sketch:type="MSArtboardGroup" transform="translate(-1163.000000, -948.000000)" fill="#FFFFFF">
            <g id="30-MILHÕES-DE" sketch:type="MSLayerGroup" transform="translate(0.000000, 881.000000)">
                <g id="Group" transform="translate(1163.000000, 67.000000)" sketch:type="MSShapeGroup">
                    <path d="M97.0475216,128.100789 C94.6444137,126.13588 91.6919434,125.152011 88.1872936,125.152011 C84.7446232,125.152011 81.8231426,126.13588 79.4200347,128.100789 C77.0141095,130.065699 75.8731262,132.389663 75.9914504,135.069857 C76.0506125,137.693505 77.2817475,139.910036 79.6876727,141.725104 C82.0907806,143.545826 84.9221095,144.453359 88.1872936,144.453359 C91.5116399,144.453359 94.3739584,143.545826 96.7770663,141.725104 C99.1829915,139.910036 100.414127,137.693505 100.473289,135.069857 C100.591613,132.389663 99.4506296,130.065699 97.0475216,128.100789 L97.0475216,128.100789 Z" id="Shape"></path>
                    <path d="M162.883664,8.47314202 C162.883664,6.44886118 162.156815,4.69316508 160.703118,3.20322653 C159.246604,1.71611518 157.48301,0.969732303 155.406702,0.969732303 L21.0636714,0.969732303 C19.0465257,0.969732303 17.2942008,1.71611518 15.8123312,3.20322653 C14.3276443,4.69316508 13.5867095,6.44886118 13.5867095,8.47314202 L13.5867095,23.4856159 L162.883664,23.4856159 L162.883664,8.47314202 L162.883664,8.47314202 Z" id="Shape"></path>
                    <path d="M169.115405,79.7668432 L6.99717905,79.7668432 C4.62224353,79.7668432 2.82765999,80.5839062 1.60779394,82.2208596 C0.39074514,83.8606402 0.111838122,85.8396857 0.765438406,88.1664778 L25.7797355,172.773501 C26.4333358,175.038094 27.8560433,176.986041 30.0534925,178.622994 C32.2481245,180.259947 34.5357255,181.079838 36.910661,181.079838 L139.201923,181.079838 C141.633203,181.079838 143.93489,180.259947 146.10135,178.622994 C148.267809,176.986041 149.676431,175.004168 150.327214,172.680203 L175.344328,88.0731799 C175.995111,85.8114136 175.713387,83.8606402 174.499155,82.2208596 C173.284924,80.5839062 171.487523,79.7668432 169.115405,79.7668432 L169.115405,79.7668432 Z M137.243939,135.069857 C136.232549,141.620497 133.370231,147.546325 128.651349,152.84734 C123.932468,158.151182 118.013441,162.273251 110.891452,165.222029 C103.769462,168.170806 96.1995316,169.643782 88.1872936,169.643782 C80.1750557,169.643782 72.6220283,168.170806 65.5310286,165.222029 C58.4372117,162.273251 52.5350885,158.151182 47.8133899,152.84734 C43.0945085,147.546325 40.2293728,141.620497 39.2207999,135.069857 C38.0939029,127.566447 39.488438,120.447537 43.4072225,113.715955 C47.3231897,106.987201 53.2732061,101.55048 61.2572716,97.4114476 C69.2385199,93.269588 78.2170721,91.202899 88.1872936,91.202899 C98.2166773,91.202899 107.223402,93.269588 115.207467,97.4114476 C123.188716,101.55048 129.141549,106.987201 133.057517,113.715955 C136.976301,120.447537 138.370836,127.566447 137.243939,135.069857 L137.243939,135.069857 Z" id="Shape"></path>
                    <path d="M175.879604,36.9742247 C174.752707,35.4871133 173.121524,34.7407304 170.983237,34.7407304 L6.10693038,34.7407304 C3.96864325,34.7407304 2.34027702,35.4871133 1.21056274,36.9742247 C0.0808484535,38.461336 -0.21496202,40.2481314 0.320314075,42.3346108 L7.26481709,68.5145558 L43.9424986,68.5145558 C47.9176279,61.8451724 53.8253856,56.4819591 61.6601373,52.4333974 C69.494889,48.3848357 78.3382135,46.3577276 88.1901109,46.3577276 C98.1011704,46.3577276 106.972667,48.3848357 114.810236,52.4333974 C122.644988,56.4847863 128.547111,61.8451724 132.527875,68.5145558 L169.205556,68.5145558 L176.685336,42.3346108 C177.274139,40.2481314 177.006501,38.461336 175.879604,36.9742247 L175.879604,36.9742247 Z" id="Shape"></path>
                </g>
            </g>
        </g>
    </g>
</svg>