<?xml version="1.0" encoding="UTF-8" standalone="no"?>
<svg width="150px" height="119px" viewBox="0 0 150 119" version="1.1" xmlns="http://www.w3.org/2000/svg" xmlns:xlink="http://www.w3.org/1999/xlink" xmlns:sketch="http://www.bohemiancoding.com/sketch/ns">
    <!-- Generator: Sketch 3.2.2 (9983) - http://www.bohemiancoding.com/sketch -->
    <title>Group 4</title>
    <desc>Created with Sketch.</desc>
    <defs></defs>
    <g id="Page-1" stroke="none" stroke-width="1" fill="none" fill-rule="evenodd" sketch:type="MSPage">
        <g id="Poderes" sketch:type="MSArtboardGroup" transform="translate(-1176.000000, -1909.000000)" fill="#FFFFFF">
            <g id="RÃDIO" sketch:type="MSLayerGroup" transform="translate(0.000000, 1796.000000)">
                <g id="Group-4" transform="translate(1176.000000, 112.815126)" sketch:type="MSShapeGroup">
                    <ellipse id="Oval" cx="75.0994109" cy="60.4147694" rx="20.8865532" ry="20.8865532"></ellipse>
                    <path d="M101.50942,23.0407009 C98.7476919,26.4691888 96.2108476,29.6215038 94.1947863,32.1228402 C103.645814,38.259794 109.91099,48.8885009 109.91099,60.9947322 C109.91099,72.5683446 104.180405,82.7867376 95.4178372,89.0282425 L102.874502,97.9288969 C114.166024,89.5411348 121.516165,76.1447821 121.516165,60.9947322 C121.516165,45.2351295 113.588034,31.3357478 101.50942,23.0407009 L101.50942,23.0407009 Z" id="Shape"></path>
                    <path d="M41.0571698,60.9927595 C41.0571698,49.1844003 47.0126387,38.7667683 56.077024,32.568662 L48.4211199,23.81793 C36.9421953,32.1899107 29.4539675,45.7006779 29.4539675,60.9927595 C29.4539675,75.9692151 36.6403779,89.2333995 47.7149066,97.6448334 C50.8021238,93.9224188 53.4612732,90.7050059 55.1183099,88.7027532 C46.6042975,82.439549 41.0571698,72.3750236 41.0571698,60.9927595 L41.0571698,60.9927595 Z" id="Shape"></path>
                    <path d="M14.945033,60.4147694 C14.945033,40.9169707 24.2283839,23.5950191 38.611068,12.6072876 L29.3020725,1.96871742 C11.9722302,15.5662818 0.826685706,36.6836365 0.826685706,60.4147694 C0.826685706,84.3411958 12.1556879,105.612418 29.7301403,119.194201 C32.2373947,116.227317 35.4548076,112.382597 38.798471,108.368228 C24.3092631,97.3883873 14.945033,79.9954198 14.945033,60.4147694 L14.945033,60.4147694 Z" id="Shape"></path>
                    <path d="M119.39358,0.802873739 C116.809392,4.02028668 113.724148,7.85711573 110.534352,11.8221679 C125.51278,22.7605828 135.251816,40.4494497 135.251816,60.416742 C135.251816,79.9362399 125.946766,97.2739728 111.536465,108.261704 L120.606768,119.087678 C138.100341,105.498004 149.370163,84.2800433 149.370163,60.416742 C149.370163,35.9991225 137.583503,14.3373129 119.39358,0.802873739 L119.39358,0.802873739 Z" id="Shape"></path>
                </g>
            </g>
        </g>
    </g>
</svg>