<?xml version="1.0" encoding="UTF-8" standalone="no"?>
<svg width="113px" height="108px" viewBox="0 0 113 108" version="1.1" xmlns="http://www.w3.org/2000/svg" xmlns:xlink="http://www.w3.org/1999/xlink" xmlns:sketch="http://www.bohemiancoding.com/sketch/ns">
    <!-- Generator: Sketch 3.2.2 (9983) - http://www.bohemiancoding.com/sketch -->
    <title>Shape 3</title>
    <desc>Created with Sketch.</desc>
    <defs></defs>
    <g id="Page-1" stroke="none" stroke-width="1" fill="none" fill-rule="evenodd" sketch:type="MSPage">
        <g id="Poderes" sketch:type="MSArtboardGroup" transform="translate(-1197.000000, -2792.000000)" fill="#FFFFFF">
            <g id="LYRICS" sketch:type="MSLayerGroup" transform="translate(0.000000, 2693.000000)">
                <path d="M1303.84781,101.188444 C1299.43693,98.9632807 1295.13258,99.2966607 1291.12019,102.235928 C1289.02522,103.768687 1286.99535,105.388243 1284.94378,106.976237 C1274.51826,115.050345 1264.09471,123.128399 1253.62973,131.232098 C1249.9803,128.413163 1246.50053,125.728369 1243.02272,123.035684 C1234.18717,116.19449 1225.3595,109.34935 1216.52197,102.514074 C1212.47801,99.3854305 1208.09278,98.9100188 1203.52804,101.145046 C1199.28484,103.224232 1197.94738,106.798697 1197.97302,111.444318 C1198.13084,139.448238 1198.15451,167.456104 1198.11703,195.460024 C1198.11111,200.091837 1200.02657,203.309249 1204.12181,205.139881 C1208.6688,207.167778 1212.88438,206.299806 1216.79814,203.259933 C1229.00695,193.77537 1241.25916,184.346042 1253.62184,174.798355 C1257.7092,177.956588 1261.72751,181.055641 1265.74385,184.154694 C1274.14345,190.640809 1282.52924,197.142706 1290.94659,203.603176 C1294.89783,206.635159 1299.20416,207.086899 1303.66435,204.877516 C1307.78327,202.837783 1309.13454,199.338279 1309.14441,194.848499 C1309.20161,167.071435 1309.3831,139.294371 1309.54683,111.517306 C1309.57642,106.976237 1308.05155,103.305111 1303.84781,101.188444 L1303.84781,101.188444 Z" id="Shape-3" sketch:type="MSShapeGroup"></path>
            </g>
        </g>
    </g>
</svg>