<?xml version="1.0" encoding="UTF-8" standalone="no"?>
<svg width="120px" height="119px" viewBox="0 0 120 119" version="1.1" xmlns="http://www.w3.org/2000/svg" xmlns:xlink="http://www.w3.org/1999/xlink" xmlns:sketch="http://www.bohemiancoding.com/sketch/ns">
    <!-- Generator: Sketch 3.2.2 (9983) - http://www.bohemiancoding.com/sketch -->
    <title>Shape 2</title>
    <desc>Created with Sketch.</desc>
    <defs></defs>
    <g id="Page-1" stroke="none" stroke-width="1" fill="none" fill-rule="evenodd" sketch:type="MSPage">
        <g id="Poderes" sketch:type="MSArtboardGroup" transform="translate(-1190.000000, -2465.000000)" fill="#FFFFFF">
            <g id="PARADAS" sketch:type="MSLayerGroup" transform="translate(0.000000, 2406.000000)">
                <path d="M1304.53294,95.5661236 C1301.4043,88.2593807 1297.20252,81.9705319 1291.9296,76.6956317 C1286.6547,71.4246768 1280.36585,67.2229052 1273.05911,64.0942621 C1265.75236,60.9656189 1258.09843,59.4012974 1250.09928,59.4012974 C1242.09816,59.4012974 1234.4462,60.9656189 1227.13946,64.0942621 C1219.83272,67.2229052 1213.53992,71.4246768 1208.26897,76.6956317 C1202.99407,81.9725046 1198.79427,88.2593807 1195.66365,95.5661236 C1192.53501,102.872866 1190.97266,110.528771 1190.97266,118.527918 C1190.97266,126.529038 1192.53501,134.18297 1195.66365,141.48774 C1198.7923,148.794483 1202.9921,155.087277 1208.26897,160.358232 C1213.53992,165.633132 1219.83272,169.832931 1227.13946,172.961574 C1234.4462,176.090217 1242.09816,177.654539 1250.09928,177.654539 C1258.09843,177.654539 1265.75236,176.090217 1273.05911,172.961574 C1280.36782,169.832931 1286.65667,165.633132 1291.9296,160.358232 C1297.20055,155.085304 1301.40232,148.794483 1304.53294,141.48774 C1307.65961,134.18297 1309.22393,126.529038 1309.22393,118.527918 C1309.2259,110.528771 1307.65961,102.872866 1304.53294,95.5661236 L1304.53294,95.5661236 Z M1266.99119,135.419829 C1266.99119,138.994294 1266.82549,141.698815 1266.49014,143.531418 C1266.15479,145.364022 1265.3164,147.127582 1263.97697,148.828018 C1262.36925,150.840134 1260.44393,152.627366 1258.21087,154.191688 C1255.97585,155.756009 1253.61851,156.951443 1251.14085,157.776016 C1248.65924,158.604534 1246.18947,159.083891 1243.7335,159.21606 C1241.27556,159.350201 1238.90639,158.973422 1236.62797,158.077833 C1234.34757,157.184217 1232.4479,155.819135 1230.92895,153.988504 C1230.43578,153.408541 1230.04519,152.647093 1229.75521,151.710078 C1229.46523,150.771091 1229.28572,149.73347 1229.21865,148.593271 C1229.15158,147.453072 1229.25416,146.304982 1229.52047,145.139138 C1229.96629,143.128995 1230.98418,141.209594 1232.5702,139.375018 C1234.15622,137.542414 1236.06576,136.013601 1238.30276,134.782659 C1240.53581,133.555663 1242.87145,132.594976 1245.30769,131.900599 C1247.74195,131.208194 1250.14465,130.939912 1252.51382,131.097725 C1254.88102,131.253565 1256.89313,131.847337 1258.54623,132.873121 L1258.54623,80.6508205 C1258.54623,79.4869495 1258.95851,78.4947001 1259.78506,77.6661818 C1260.6116,76.8416087 1261.60583,76.4273496 1262.7697,76.4273496 C1263.93159,76.4273496 1264.92582,76.8416087 1265.75236,77.6661818 C1266.57891,78.4947001 1266.99119,79.4869495 1266.99119,80.6508205 L1266.99119,135.419829 L1266.99119,135.419829 Z" id="Shape-2" sketch:type="MSShapeGroup"></path>
            </g>
        </g>
    </g>
</svg>