<?xml version="1.0" encoding="UTF-8" standalone="no"?>
<svg width="124px" height="123px" viewBox="0 0 124 123" version="1.1" xmlns="http://www.w3.org/2000/svg" xmlns:xlink="http://www.w3.org/1999/xlink" xmlns:sketch="http://www.bohemiancoding.com/sketch/ns">
    <!-- Generator: Sketch 3.2.2 (9983) - http://www.bohemiancoding.com/sketch -->
    <title>Group 6</title>
    <desc>Created with Sketch.</desc>
    <defs></defs>
    <g id="Page-1" stroke="none" stroke-width="1" fill="none" fill-rule="evenodd" sketch:type="MSPage">
        <g id="Poderes" sketch:type="MSArtboardGroup" transform="translate(-1196.000000, -3072.000000)" fill="#FFFFFF">
            <g id="SPOTIFY-CONNECT" sketch:type="MSLayerGroup" transform="translate(0.000000, 2997.000000)">
                <g id="Group-6" transform="translate(1196.000000, 74.792780)" sketch:type="MSShapeGroup">
                    <path d="M73.2806158,28.714079 C73.2806158,27.362805 72.4994414,26.1338361 71.2823085,25.5558459 C70.0632029,24.9778557 68.6192137,25.1514501 67.5737025,26.0036404 C62.0857547,30.4736941 45.9296468,42.3432059 37.2085048,43.5682295 C37.1670789,43.5721748 37.1236803,43.5800655 37.0822544,43.5879561 C33.6261492,44.2034269 24.8497727,45.477767 24.7610028,45.4915757 C23.0428136,45.7401312 21.7684735,47.2137102 21.7684735,48.9496535 L21.7684735,61.2866863 C21.7684735,61.3438935 21.7724188,61.4011007 21.7763641,61.4543626 C21.7724188,61.5115698 21.7684735,61.5668044 21.7684735,61.622039 L21.7684735,73.9610445 C21.7684735,75.6989603 23.0428136,77.1745121 24.7610028,77.4210949 C24.8497727,77.4329309 33.6261492,78.707271 37.0822544,79.3247145 C37.1236803,79.3326051 37.1670789,79.3404958 37.2085048,79.3464138 C45.9197835,80.5694647 62.0818094,92.4409491 67.5737025,96.9090302 C68.2108726,97.4278405 68.992047,97.6921773 69.7811121,97.6921773 C70.2920318,97.6921773 70.8068967,97.5777629 71.2823085,97.3509067 C72.4994414,96.7748892 73.2806158,95.5439476 73.2806158,94.1907009 L73.2806158,61.6180936 C73.2806158,61.5648317 73.2727252,61.5095972 73.2687798,61.4543626 C73.2727252,61.4030734 73.2806158,61.3458662 73.2806158,61.2926043 L73.2806158,28.714079 L73.2806158,28.714079 Z" id="Shape"></path>
                    <path d="M80.737281,77.3658604 C81.4257403,77.7623656 82.1773248,77.9477959 82.919046,77.9477959 C84.451805,77.9477959 85.9391927,77.1488675 86.7558751,75.718687 C89.2000042,71.4360361 90.4920983,66.5536958 90.4920983,61.6003397 C90.4920983,56.5818856 89.1723869,51.6443108 86.6690779,47.3241794 C85.4479997,45.2154029 82.743479,44.495381 80.6327299,45.7204045 C78.5239534,46.9414828 77.8059042,49.6420581 79.0289551,51.7547799 C80.7510897,54.7335006 81.6644325,58.1383165 81.6644325,61.604285 C81.6644325,65.0268549 80.7747616,68.3941902 79.0901076,71.343321 C77.8808654,73.4619608 78.6206139,76.1585908 80.737281,77.3658604 L80.737281,77.3658604 Z" id="Shape"></path>
                    <path d="M93.7391012,86.9904819 C94.4749044,87.4599756 95.2955321,87.6828865 96.1043238,87.6828865 C97.5660669,87.6828865 98.9942748,86.960892 99.8385744,85.6352626 C104.401343,78.4567429 106.815883,70.1478874 106.815883,61.604285 C106.815883,52.9502135 104.342163,44.5506155 99.6649801,37.3129159 C98.3472414,35.2633193 95.6091855,34.6734931 93.5635342,35.9991225 C91.5159103,37.3208066 90.9260841,40.0549171 92.2517135,42.1025411 C95.9997727,47.9080875 97.9842714,54.6545941 97.9842714,61.6062577 C97.9842714,68.4691514 96.0471166,75.1367515 92.3819092,80.8969267 C91.0740338,82.9524413 91.6816139,85.6806338 93.7391012,86.9904819 L93.7391012,86.9904819 Z" id="Shape"></path>
                    <path d="M112.686527,27.4121216 C111.327362,25.3881696 108.57747,24.8575233 106.557464,26.2226059 C104.53943,27.5857159 104.006811,30.3336351 105.369921,32.3516691 C111.21492,41.0017952 114.300165,51.1195825 114.300165,61.6023123 C114.300165,71.9489285 111.289882,81.9483559 105.584941,90.5274662 C104.233667,92.5593089 104.789958,95.2973648 106.821801,96.6486387 C107.56944,97.1496951 108.419657,97.3883873 109.258039,97.3883873 C110.686247,97.3883873 112.08881,96.69401 112.939028,95.4157245 C119.606628,85.3867071 123.129803,73.6927623 123.129803,61.6023123 C123.131776,49.350104 119.519831,37.5259635 112.686527,27.4121216 L112.686527,27.4121216 Z" id="Shape"></path>
                    <path d="M96.834209,100.625527 C87.2431228,109.200692 74.858746,113.925219 61.9792309,113.925219 C33.1290382,113.925219 9.65632417,90.4544777 9.65632417,61.604285 C9.65632417,32.7540923 33.1290382,9.2833509 61.9792309,9.2833509 C74.858746,9.2833509 87.2431228,14.0078782 96.834209,22.5790978 C98.6530041,24.2045719 101.444322,24.0487316 103.067823,22.2299365 C104.687379,20.4131141 104.535484,17.6217963 102.714717,15.9963222 C91.500129,5.97125014 77.0326204,0.45173977 61.9792309,0.45173977 C28.2605066,0.45173977 0.826685706,27.8855606 0.826685706,61.604285 C0.826685706,95.324982 28.2605066,122.75683 61.9792309,122.75683 C77.0365657,122.75683 91.506047,117.235347 102.718662,107.210275 C104.537457,105.588746 104.691325,102.795456 103.067823,100.974688 C101.444322,99.1578658 98.6530041,99.0020254 96.834209,100.625527 L96.834209,100.625527 Z" id="Shape"></path>
                </g>
            </g>
        </g>
    </g>
</svg>