<?xml version="1.0" encoding="UTF-8" standalone="no"?>
<svg width="127px" height="144px" viewBox="0 0 127 144" version="1.1" xmlns="http://www.w3.org/2000/svg" xmlns:xlink="http://www.w3.org/1999/xlink" xmlns:sketch="http://www.bohemiancoding.com/sketch/ns">
    <!-- Generator: Sketch 3.2.2 (9983) - http://www.bohemiancoding.com/sketch -->
    <title>Shape</title>
    <desc>Created with Sketch.</desc>
    <defs></defs>
    <g id="Page-1" stroke="none" stroke-width="1" fill="none" fill-rule="evenodd" sketch:type="MSPage">
        <g id="Poderes" sketch:type="MSArtboardGroup" transform="translate(-1188.000000, -1256.000000)" fill="#FFFFFF">
            <g id="Group-2" sketch:type="MSLayerGroup" transform="translate(1188.000000, 1256.608369)">
                <path d="M99.9391802,7.26545692 C99.9391802,6.12131252 99.712324,5.06199263 99.2586116,4.0835519 C98.8068718,3.10905651 98.2111276,2.31012809 97.4713791,1.68873933 C96.7316306,1.07129589 95.8380144,0.641255407 94.7905304,0.402563215 C93.7410739,0.163871022 92.646246,0.163871022 91.500129,0.402563215 L18.2729151,14.9904042 C17.653499,15.132436 17.0340829,15.3494289 16.4146667,15.635465 C15.793278,15.9215011 15.1975338,16.278553 14.6254616,16.7085935 L99.9372076,16.7085935 L99.9372076,7.26545692 L99.9391802,7.26545692 Z M123.859689,28.8266608 C121.78642,26.7533922 119.294947,25.7177443 116.387242,25.7177443 L11.4100214,25.7177443 C8.50231646,25.7177443 6.01281607,26.7533922 3.93757486,28.8266608 C1.86430631,30.901902 0.826685706,33.3914024 0.826685706,36.2991073 L0.826685706,132.265205 C0.826685706,135.17291 1.86430631,137.66241 3.93757486,139.737651 C6.01281607,141.81092 8.50231646,142.84854 11.4100214,142.84854 L116.387242,142.84854 C119.294947,142.84854 121.78642,141.81092 123.859689,139.737651 C125.93493,137.66241 126.970578,135.17291 126.970578,132.265205 L126.970578,36.2991073 C126.970578,33.3914024 125.93493,30.8999293 123.859689,28.8266608 Z M99.9391802,102.30243 C99.9391802,102.349774 99.9155083,102.424735 99.8681644,102.51745 L99.9391802,102.730498 L99.9391802,102.874502 C99.9391802,105.638203 98.6174962,108.250008 95.9721554,110.704001 C93.324842,113.159966 90.142937,114.744014 86.4244677,115.460091 C82.7059984,116.174195 79.5240934,115.817143 76.8787527,114.386962 C74.2314393,112.954809 72.9077826,110.883513 72.9077826,108.165184 C72.9077826,106.354279 73.5153627,104.567047 74.7324956,102.801514 C75.9476559,101.037953 77.5928566,99.5111124 79.6641525,98.2269089 C81.7393937,96.9407328 83.9902019,96.0569799 86.4224951,95.5795955 C87.8526755,95.2935594 89.3538719,95.1988716 90.9280568,95.2935594 L90.9280568,67.6190737 L54.5304564,75.7720889 L54.8875083,106.806019 C54.9348523,107.044711 54.9604969,107.425435 54.9604969,107.950164 C54.9604969,108.476865 54.9486609,109.070636 54.9230163,109.737396 C54.8993443,110.406129 54.8875083,110.810525 54.8875083,110.952556 C54.8875083,112.907465 54.2799282,114.824893 53.064768,116.708786 C51.8476351,118.592679 50.204407,120.224071 48.1311384,121.606908 C46.0578699,122.989744 43.805089,123.942541 41.3727959,124.467269 C37.7016705,125.230689 34.5335741,124.729633 31.8625887,122.9641 C29.1916034,121.200539 27.8580834,118.81559 27.8580834,115.813197 C27.8580834,112.905492 29.1560954,110.262124 31.756065,107.877175 C34.3540618,105.494199 37.5596388,103.896342 41.3727959,103.085577 C42.0395559,102.941573 42.7201245,102.846885 43.4105565,102.797569 C44.1009884,102.748252 44.805229,102.750225 45.519333,102.797569 L45.519333,57.252731 C45.519333,56.2052471 45.852713,55.2623143 46.5214456,54.4259053 C47.186233,53.5934416 48.0463139,53.0568773 49.0937979,52.8181851 L94.5025217,43.4500097 C95.8853583,43.1166297 97.1498351,43.4263378 98.2920068,44.3811065 C98.6253868,44.6691153 98.9252316,44.9886867 99.1875957,45.3457386 C99.4479872,45.7027906 99.6393355,46.0973231 99.7596679,46.525391 C99.8780277,46.9554314 99.9372076,47.4091439 99.9372076,47.8845556 L99.9372076,102.30243 L99.9391802,102.30243 Z" id="Shape" sketch:type="MSShapeGroup"></path>
            </g>
        </g>
    </g>
</svg>