<?xml version="1.0" encoding="UTF-8" standalone="no"?>
<svg width="154px" height="164px" viewBox="0 0 154 164" version="1.1" xmlns="http://www.w3.org/2000/svg" xmlns:xlink="http://www.w3.org/1999/xlink" xmlns:sketch="http://www.bohemiancoding.com/sketch/ns">
    <!-- Generator: Sketch 3.2.2 (9983) - http://www.bohemiancoding.com/sketch -->
    <title>Shape + Shape</title>
    <desc>Created with Sketch.</desc>
    <defs></defs>
    <g id="Page-1" stroke="none" stroke-width="1" fill="none" fill-rule="evenodd" sketch:type="MSPage">
        <g id="Poderes" sketch:type="MSArtboardGroup" transform="translate(-1177.000000, -1558.000000)" fill="#FFFFFF">
            <g id="DISCOVER" sketch:type="MSLayerGroup" transform="translate(0.000000, 1491.000000)">
                <g id="Group-3" transform="translate(-7.000000, -294.685706)" sketch:type="MSShapeGroup">
                    <g id="Shape-+-Shape" transform="translate(1184.000000, 362.000000)">
                        <path d="M76.9280692,10.7155041 C68.5442526,10.7155041 60.4859252,12.0924227 52.9424629,14.593759 C52.5183404,6.72086199 46.1170498,0.449767107 38.2066721,0.449767107 C30.0260397,0.449767107 23.3919749,7.14498448 23.3919749,15.4025507 C23.3919749,20.326317 25.7828421,24.660257 29.4224049,27.3825316 C11.9978749,41.3292573 0.824713043,62.762238 0.824713043,86.8168876 C0.824713043,128.84644 34.896544,162.916298 76.9260966,162.916298 C118.955649,162.916298 153.02748,128.84644 153.02748,86.8168876 C153.02748,44.7873351 118.957622,10.7155041 76.9280692,10.7155041 L76.9280692,10.7155041 Z M39.102261,9.00126012 C42.9706527,9.00126012 46.1071865,12.1654112 46.1071865,16.0712834 C46.1071865,19.9732103 42.9706527,23.139334 39.102261,23.139334 C35.235842,23.139334 32.0973356,19.9732103 32.0973356,16.0712834 C32.0973356,12.1654112 35.2338694,9.00126012 39.102261,9.00126012 L39.102261,9.00126012 Z M76.9280692,148.188398 C43.0318052,148.188398 15.5545858,120.713152 15.5545858,86.8188603 C15.5545858,52.9225962 43.0318052,25.4453768 76.9280692,25.4453768 C110.822361,25.4453768 138.29958,52.9245689 138.29958,86.8188603 C138.301553,120.711179 110.824333,148.188398 76.9280692,148.188398 L76.9280692,148.188398 Z" id="Shape"></path>
                        <path d="M56.6175336,126.765281 L89.8707095,91.0561398 L98.1282758,53.5637116 L65.991627,84.5838334 L56.6175336,126.765281 Z" id="Shape"></path>
                    </g>
                </g>
            </g>
        </g>
    </g>
</svg>